<svg xmlns="http://www.w3.org/2000/svg" viewBox="0 0 64 64" fill="none">
  <!-- Outer shield -->
  <defs>
    <linearGradient id="lab-grad" x1="0" y1="0" x2="0" y2="1">
      <stop offset="0%" stop-color="#2a5298"/>
      <stop offset="100%" stop-color="#1d3b6e"/>
    </linearGradient>
  </defs>
  <path d="M32 3 L57 11 V32 C57 47 46 56 32 61 C18 56 7 47 7 32 V11 Z"
        fill="url(#lab-grad)"/>
  <path d="M32 3 L57 11 V32 C57 47 46 56 32 61 C18 56 7 47 7 32 V11 Z"
        fill="none" stroke="#0f1729" stroke-opacity="0.18" stroke-width="1.2"/>
  <!-- Erlenmeyer flask -->
  <path d="M26 18 V27 L19 44 C18.2 45.8 19.5 48 21.5 48 H42.5 C44.5 48 45.8 45.8 45 44 L38 27 V18 Z"
        fill="#ffffff" fill-opacity="0.97"/>
  <!-- Flask neck rim -->
  <rect x="25" y="16" width="14" height="3" rx="1.2" fill="#ffffff"/>
  <!-- Liquid level highlight -->
  <path d="M22.8 36 L41.2 36 L45 44 C45.8 45.8 44.5 48 42.5 48 H21.5 C19.5 48 18.2 45.8 19 44 Z"
        fill="#e94560" fill-opacity="0.85"/>
  <!-- Bubbles -->
  <circle cx="28" cy="42" r="1.8" fill="#ffffff" fill-opacity="0.85"/>
  <circle cx="35" cy="40" r="1.2" fill="#ffffff" fill-opacity="0.8"/>
  <circle cx="32" cy="44.5" r="1.1" fill="#ffffff" fill-opacity="0.7"/>
</svg>
